<?xml version="1.0" encoding="UTF-8"?>
<svg viewBox="0 0 289.6441 289.6441" xmlns="http://www.w3.org/2000/svg">
 <g transform="matrix(.61531 0 0 .61531 257.32 165.47)">
  <path d="m-393.83-268.92h421.97a24.378 24.378 0 0 1 24.378 24.378v421.97a24.378 24.378 0 0 1 -24.378 24.378h-421.97a24.378 24.378 0 0 1 -24.378 -24.378v-421.97a24.378 24.378 0 0 1 24.378 -24.378" fill="#036"/>
  <g fill="#eee">
   <path transform="matrix(.93343 0 0 .99574 -505.4 -411.91)" d="m276.28 279.85c0 17.155-13.907 31.062-31.062 31.062s-31.062-13.907-31.062-31.062 13.907-31.062 31.062-31.062 31.062 13.907 31.062 31.062z"/>
   <path transform="matrix(.63857 -.72627 .68082 .6812 -506.73 -410.49)" d="m-52.313 407.51h42.247a8.4026 8.4374 0 0 1 8.4026 8.4374v115.46a8.4026 8.4374 0 0 1 -8.4026 8.4374h-42.247a8.4026 8.4374 0 0 1 -8.4026 -8.4374v-115.46a8.4026 8.4374 0 0 1 8.4026 -8.4374"/>
   <path transform="matrix(.67834 -.68401 .6412 .72362 -506.73 -410.49)" d="m-119.64 363.82h9.558a8.4353 8.4047 0 0 1 8.4353 8.4047v63.191a8.4353 8.4047 0 0 1 -8.4353 8.4047h-9.558a8.4353 8.4047 0 0 1 -8.4353 -8.4047v-63.191a8.4353 8.4047 0 0 1 8.4353 -8.4047"/>
   <path transform="matrix(-.62633 .7383 -.6977 -.66148 -506.73 -410.49)" d="m-63.511-487.41h10.029a8.3912 8.4502 0 0 1 8.3912 8.4502v64.337a8.3912 8.4502 0 0 1 -8.3912 8.4502h-10.029a8.3912 8.4502 0 0 1 -8.3912 -8.4502v-64.337a8.3912 8.4502 0 0 1 8.3912 -8.4502"/>
   <path transform="matrix(.64944 .71521 -.64683 .7179 -506.73 -410.49)" d="m553.98-22.955h19.554a8.4087 8.4066 0 0 1 8.4087 8.4066v93.298a8.4087 8.4066 0 0 1 -8.4087 8.4066h-19.554a8.4087 8.4066 0 0 1 -8.4087 -8.4066v-93.298a8.4087 8.4066 0 0 1 8.4087 -8.4066"/>
   <path transform="matrix(.66003 -.7041 .66003 .7041 -506.73 -410.49)" d="m-100.73 410.64h40.531a8.3058 8.3059 0 0 1 8.3058 8.3059v11.96a8.3058 8.3059 0 0 1 -8.3058 8.3059h-40.531a8.3058 8.3059 0 0 1 -8.3058 -8.3059v-11.96a8.3058 8.3059 0 0 1 8.3058 -8.3059"/>
   <path transform="matrix(.63423 -.73058 .68486 .67658 -506.73 -410.49)" d="m8.5725 406.76h32.592a8.3468 8.3876 0 0 1 8.3468 8.3876v13.939a8.3468 8.3876 0 0 1 -8.3468 8.3876h-32.592a8.3468 8.3876 0 0 1 -8.3468 -8.3876v-13.939a8.3468 8.3876 0 0 1 8.3468 -8.3876"/>
   <path transform="matrix(.65386 -.71062 .66615 .69751 -506.73 -410.49)" d="m-18.986 590.72h18.171a8.4145 8.4246 0 0 1 8.4145 8.4246v116.01a8.4145 8.4246 0 0 1 -8.4145 8.4246h-18.171a8.4145 8.4246 0 0 1 -8.4145 -8.4246v-116.01a8.4145 8.4246 0 0 1 8.4145 -8.4246"/>
   <path transform="matrix(.10953 -.98887 .92698 .11684 -506.73 -410.49)" d="m-442.67 413.13h14.38a8.1672 8.6969 0 0 1 8.1672 8.6969v55.463a8.1672 8.6969 0 0 1 -8.1672 8.6969h-14.38a8.1672 8.6969 0 0 1 -8.1672 -8.6969v-55.463a8.1672 8.6969 0 0 1 8.1672 -8.6969"/>
  </g>
 </g>
</svg>
